# xmcd
#
# Track frame offsets: 
#        150
#        27410
#        54452
#        78907
#
# Disc length: 1221 seconds
#
# Revision: 0
# Processed by: cddbd v1.5.2PL0 Copyright (c) Steve Scherf et al.
# Submitted via: ExactAudioCopy v1.0b3
#
DISCID=2704c304
DTITLE=E.L.A. - Dreams (Remix)
DYEAR=1900
DGENRE=
TTITLE0=Dreams (Piano 12'' Mix)
TTITLE1=Dreams (Trance Vocal Version)
TTITLE2=Dreams (New York Vocal Version)
TTITLE3=Dreams (High Fly Vox Mix)
EXTD=
EXTT0=
EXTT1=
EXTT2=
EXTT3=
PLAYORDER=
